<?xml version="1.0" encoding="UTF-8"?><svg id="Icon_Set_Artwork" xmlns="http://www.w3.org/2000/svg" viewBox="0 0 600 600"><defs><style>.cls-1{fill:#fff;}</style></defs><path class="cls-1" d="M301.39,57.18c29.76,0,59.53,11.35,82.23,34.06,45.42,45.42,45.42,119.05,0,164.47-22.71,22.71-52.47,34.06-82.23,34.06s-59.53-11.35-82.23-34.06c-45.42-45.42-45.42-119.05,0-164.47,22.71-22.71,52.47-34.06,82.23-34.06m0-12c-34.27,0-66.49,13.34-90.72,37.58-24.23,24.23-37.58,56.45-37.58,90.72s13.34,66.49,37.58,90.72c24.23,24.23,56.45,37.58,90.72,37.58s66.49-13.34,90.72-37.58c24.23-24.23,37.58-56.45,37.58-90.72s-13.34-66.49-37.58-90.72c-24.23-24.23-56.45-37.58-90.72-37.58h0Z"/><path class="cls-1" d="M371.95,310.41c-.41,.23-.81,.47-1.22,.7h63.2c62.12,0,112.47,46.48,112.47,103.82v127.9h-87.99v-133.46c0-6.24-5.48-11.3-12.24-11.3-.6,0-1.2,.04-1.82,.12-6.07,.81-10.42,5.87-10.42,11.53v133.11H168.85v-128.66c0-6.24-5.48-11.3-12.24-11.3-.6,0-1.2,.04-1.82,.12-6.07,.81-10.42,5.87-10.42,11.53v128.3H56.38v-127.9c0-57.34,50.35-103.82,112.47-103.82h63.2c-.41-.23-.81-.47-1.22-.7h141.12m45.2-12H185.63l1.23,.7h-18c-33.07,0-64.2,11.93-87.67,33.59-23.73,21.91-36.8,51.11-36.8,82.23v139.9h111.99v-139.94h0c.08-.01,.16-.02,.24-.02,.09,0,.17,0,.24,.02v139.93H445.93v-144.75h0c.08-.01,.16-.02,.24-.02,.09,0,.17,0,.24,.02v144.74h111.99v-139.9c0-31.12-13.07-60.32-36.8-82.23-23.47-21.66-54.6-33.59-87.67-33.59h-18.01l1.23-.7h0Z"/></svg>