<?xml version="1.0" encoding="UTF-8"?><svg id="Icon_Set_Artwork" xmlns="http://www.w3.org/2000/svg" viewBox="0 0 600 600"><defs><style>.cls-1{fill:#fff;}</style></defs><circle class="cls-1" cx="301.39" cy="178.89" r="116.3"/><path class="cls-1" d="M144.38,548.24v-128.3c0-5.66,4.35-10.72,10.42-11.53,7.57-1,14.05,4.39,14.05,11.18v128.66H433.93v-133.11c0-5.66,4.35-10.72,10.42-11.53,7.57-1,14.05,4.39,14.05,11.18v133.46h87.99v-127.89c0-57.34-50.35-103.82-112.47-103.82h-63.19c.41-.23,.81-.47,1.22-.7H230.83c.41,.23,.81,.47,1.22,.7h-63.2c-62.11,0-112.47,46.48-112.47,103.82v127.9h87.99Z"/></svg>