<?xml version="1.0" encoding="UTF-8"?><svg id="Layer_2" xmlns="http://www.w3.org/2000/svg" viewBox="0 0 600 600"><defs><style>.cls-1{fill:#fff;}</style></defs><path class="cls-1" d="M259.74,37.32c7.6,0,13.76,6.16,13.76,13.76V411.3l-.9,114.45c-.03,4.39-3.63,7.3-7.4,7.3-1.75,0-3.53-.63-5.01-2.03L81.32,361.15c-4.35-4.13-4.74-10.92-.9-15.53l20.8-24.95c2.26-2.71,5.49-4.09,8.74-4.09,2.87,0,5.75,1.08,7.98,3.27l96.83,95.43c.97,.96,2.12,1.39,3.25,1.39,2.53,0,4.93-2.16,4.93-5.38V51.08c0-7.6,6.16-13.76,13.76-13.76h23.03m0-12h-23.03c-14.21,0-25.76,11.56-25.76,25.76V394.67l-84.59-83.36c-4.4-4.34-10.22-6.72-16.4-6.72-6.96,0-13.5,3.06-17.96,8.41l-20.8,24.95c-7.86,9.44-7.05,23.45,1.86,31.91l178.87,169.86c3.62,3.44,8.34,5.33,13.28,5.33,10.61,0,19.31-8.62,19.4-19.21l.9-114.45v-.05s0-.05,0-.05V51.08c0-14.21-11.56-25.76-25.76-25.76h0Z"/><path class="cls-1" d="M334.8,37.32c1.75,0,3.53,.63,5.01,2.03l178.87,169.86c4.35,4.13,4.74,10.92,.9,15.53l-20.8,24.95c-2.26,2.71-5.49,4.09-8.74,4.09-2.87,0-5.75-1.08-7.98-3.27l-96.83-95.43c-.97-.96-2.12-1.39-3.25-1.39-2.53,0-4.93,2.16-4.93,5.38v360.21c0,7.6-6.16,13.76-13.76,13.76h-23.03c-7.6,0-13.76-6.16-13.76-13.76V159.07l.9-114.45c.03-4.39,3.63-7.3,7.4-7.3m0-12c-10.61,0-19.31,8.62-19.4,19.21l-.9,114.45v.05s0,.05,0,.05v360.21c0,14.21,11.56,25.76,25.76,25.76h23.03c14.21,0,25.76-11.56,25.76-25.76V175.69l84.59,83.36c4.4,4.34,10.22,6.72,16.4,6.72,6.96,0,13.5-3.06,17.96-8.41l20.8-24.95c7.86-9.44,7.05-23.45-1.86-31.91L348.07,30.65c-3.62-3.44-8.34-5.33-13.27-5.33h0Z"/></svg>