<?xml version="1.0" encoding="UTF-8"?><svg id="Layer_2" xmlns="http://www.w3.org/2000/svg" viewBox="0 0 600 600"><defs><style>.cls-1{fill:#fff;}</style></defs><path class="cls-1" d="M299.93,90.7c8.43,0,15.27,6.84,15.27,15.27V405.52c0,3.37,2.52,5.64,5.17,5.64,1.18,0,2.39-.45,3.4-1.45l98.88-97.45c2.99-2.94,6.86-4.39,10.71-4.39,4.36,0,8.7,1.85,11.74,5.49l17.89,21.46c4.97,5.96,4.68,14.7-.68,20.32l-157.53,147.84c-4.49,4.21-10.23,6.32-15.97,6.32s-11.49-2.11-15.98-6.33L115.54,355.14c-5.57-5.59-5.97-14.5-.92-20.56l17.69-21.23c3.04-3.64,7.38-5.49,11.74-5.49,3.86,0,7.73,1.45,10.71,4.39l98.88,97.45c1.02,1,2.22,1.45,3.4,1.45,2.65,0,5.17-2.27,5.17-5.64V105.97c0-8.43,6.84-15.27,15.27-15.27h22.45m0-12h-22.45c-15.04,0-27.27,12.23-27.27,27.27V389.48l-87.03-85.77c-5.13-5.06-11.93-7.85-19.14-7.85-8.12,0-15.76,3.57-20.95,9.81l-17.69,21.23c-9.08,10.89-8.38,26.68,1.64,36.72l.14,.14,.14,.13,157.3,147.82c6.58,6.18,15.17,9.59,24.2,9.59s17.61-3.4,24.18-9.57l157.53-147.84,.24-.23,.23-.24c9.57-10.03,10.09-25.63,1.21-36.28l-17.89-21.46c-5.2-6.23-12.83-9.81-20.95-9.81-7.2,0-14,2.79-19.14,7.85l-87.03,85.77V105.97c0-15.04-12.23-27.27-27.27-27.27h0Z"/></svg>