<?xml version="1.0" encoding="UTF-8"?><svg id="Icon_Set_Artwork" xmlns="http://www.w3.org/2000/svg" viewBox="0 0 600 600"><defs><style>.cls-1{fill:#fff;}</style></defs><path class="cls-1" d="M91.97,213.62L229.54,121.62c12.18-8.14,28.51,.59,28.51,15.23v183.99c0,14.65-16.33,23.37-28.51,15.23L91.97,244.08c-10.85-7.26-10.85-23.21,0-30.46Z"/><path class="cls-1" d="M448.28,409.75c0,7.05-.7,13.98-2.05,20.76-4.18,21.07,12.07,40.67,33.54,40.67h0c16.7,0,31-12.06,33.72-28.54,1.77-10.72,2.68-21.7,2.68-32.88h0c0-120.65-106.45-218.46-237.77-218.46h-23.06c-18.87,0-34.17,15.3-34.17,34.17v9.48c0,18.87,15.3,34.17,34.17,34.17h23.06c84.54,0,169.87,62.97,169.87,140.64Z"/></svg>