<?xml version="1.0" encoding="UTF-8"?><svg id="Icon_Set_Artwork" xmlns="http://www.w3.org/2000/svg" viewBox="0 0 600 600"><defs><style>.cls-1{fill:#fff;}</style></defs><path class="cls-1" d="M438.22,334.73c2.88,0,5.83,.82,8.54,2.63l115.99,77.56c9.15,6.12,9.15,19.57,0,25.68l-115.99,77.56c-2.71,1.81-5.66,2.63-8.54,2.63-8.03,0-15.49-6.39-15.49-15.47v-47.79H100.58v-59.55H422.73v-47.79c0-9.09,7.46-15.47,15.49-15.47m0-12h0c-15.16,0-27.49,12.33-27.49,27.47v35.79H100.58c-6.63,0-12,5.37-12,12v59.55c0,6.63,5.37,12,12,12H410.73v35.79c0,15.15,12.33,27.47,27.49,27.47,5.4,0,10.66-1.61,15.21-4.66l115.99-77.56c7.63-5.1,12.19-13.63,12.19-22.82,0-9.18-4.56-17.71-12.19-22.82l-115.99-77.56c-4.56-3.05-9.82-4.66-15.21-4.66h0Z"/><g><path class="cls-1" d="M184.81,303.22c-4.21,0-8.31-1.26-11.88-3.65L56.95,222.01c-5.96-3.99-9.53-10.65-9.53-17.83,0-7.17,3.56-13.84,9.52-17.83l115.99-77.56c3.57-2.38,7.67-3.65,11.88-3.65,11.85,0,21.49,9.63,21.49,21.47v41.79h316.15c3.31,0,6,2.69,6,6v59.55c0,3.31-2.69,6-6,6H206.3v41.79c0,11.84-9.64,21.47-21.49,21.47Z"/><path class="cls-1" d="M184.81,111.15c8.03,0,15.49,6.39,15.49,15.47v47.79h322.15v59.55H200.3v47.79c0,9.09-7.46,15.47-15.49,15.47-2.88,0-5.83-.82-8.54-2.63L60.28,217.03c-9.15-6.12-9.15-19.57,0-25.68l115.99-77.56c2.71-1.81,5.66-2.63,8.54-2.63m0-12h0c-5.4,0-10.66,1.61-15.21,4.66L53.61,181.37c-7.63,5.1-12.19,13.63-12.19,22.82,0,9.18,4.56,17.71,12.19,22.82l115.99,77.56c4.56,3.05,9.82,4.66,15.21,4.66,15.16,0,27.49-12.33,27.49-27.47v-35.79h310.15c6.63,0,12-5.37,12-12v-59.55c0-6.63-5.37-12-12-12H212.3v-35.79c0-15.15-12.33-27.47-27.49-27.47h0Z"/></g></svg>