<?xml version="1.0" encoding="UTF-8"?><svg id="Icon_Set_Artwork" xmlns="http://www.w3.org/2000/svg" viewBox="0 0 600 600"><defs><style>.cls-1{stroke-miterlimit:10;}.cls-1,.cls-2,.cls-3{stroke:#fff;}.cls-1,.cls-3{fill:none;stroke-width:12px;}.cls-2{fill:#fff;stroke-linecap:round;stroke-width:16px;}.cls-2,.cls-3{stroke-linejoin:round;}</style></defs><path class="cls-1" d="M480.51,238.43l-334.22-5.9c-9.3-.84-17.45,5.6-19.12,14.42,3.82-10.07,14.94-15.95,25.58-11.97l289.96,108.34c7.98,2.98,13.31,10.83,13.31,19.63v143.67l21.29,1.92c10.44,.94,19.44-7.28,19.44-17.77v-234.55c0-9.23-7.04-16.94-16.24-17.77Z"/><path class="cls-3" d="M442.72,343.31L152.76,234.98c-10.65-3.99-21.76,1.9-25.59,11.97-.2,1.08-.31,2.2-.31,3.34v210.34c0,1.67,.24,3.28,.67,4.8,2.18,5.11,6.28,9.22,11.57,11.2l4.96,1.85,285,106.49c13.13,4.91,26.96-5.18,26.96-19.63v-202.4c0-8.8-5.31-16.64-13.3-19.63Z"/><line class="cls-2" x1="312.33" y1="28.09" x2="312.33" y2="170.2"/><line class="cls-2" x1="312.33" y1="25.92" x2="244.53" y2="77.58"/><line class="cls-2" x1="312.33" y1="25.92" x2="379.39" y2="77.03"/><path class="cls-3" d="M393.31,524.34c-12.87,3.28-27.55-10.86-32.81-31.54-1.55-6.09-2.1-12.04-1.8-17.52,.73-13.19,6.47-23.57,15.55-25.88,12.58-3.2,26.9,10.24,32.45,30.2,.12,.45,.25,.89,.37,1.35,5.26,20.7-.9,40.12-13.76,43.38Z"/></svg>