<?xml version="1.0" encoding="UTF-8"?><svg id="Icon_Set_Artwork" xmlns="http://www.w3.org/2000/svg" viewBox="0 0 600 600"><defs><style>.cls-1{fill:#fff;}.cls-2{fill:none;}</style></defs><path class="cls-1" d="M183.21,87.23c15.83,0,28.67,12.83,28.67,28.67v73.68c0,15.83-12.83,28.67-28.67,28.67H109.53c-15.83,0-28.67-12.83-28.67-28.67V115.9c0-15.83,12.83-28.67,28.67-28.67h73.68m0-16H109.53c-24.63,0-44.67,20.04-44.67,44.67v73.68c0,24.63,20.04,44.67,44.67,44.67h73.68c24.63,0,44.67-20.04,44.67-44.67V115.9c0-24.63-20.04-44.67-44.67-44.67h0Z"/><path class="cls-1" d="M339.9,87.23c15.83,0,28.67,12.83,28.67,28.67v73.68c0,15.83-12.83,28.67-28.67,28.67h-73.68c-15.83,0-28.67-12.83-28.67-28.67V115.9c0-15.83,12.83-28.67,28.67-28.67h73.68m0-16h-73.68c-24.63,0-44.67,20.04-44.67,44.67v73.68c0,24.63,20.04,44.67,44.67,44.67h73.68c24.63,0,44.67-20.04,44.67-44.67V115.9c0-24.63-20.04-44.67-44.67-44.67h0Z"/><path class="cls-1" d="M493.68,87.23c15.83,0,28.67,12.83,28.67,28.67v73.68c0,15.83-12.83,28.67-28.67,28.67h-73.68c-15.83,0-28.67-12.83-28.67-28.67V115.9c0-15.83,12.83-28.67,28.67-28.67h73.68m0-16h-73.68c-24.63,0-44.67,20.04-44.67,44.67v73.68c0,24.63,20.04,44.67,44.67,44.67h73.68c24.63,0,44.67-20.04,44.67-44.67V115.9c0-24.63-20.04-44.67-44.67-44.67h0Z"/><path class="cls-1" d="M183.21,235.61c15.83,0,28.67,12.83,28.67,28.67v73.68c0,15.83-12.83,28.67-28.67,28.67H109.53c-15.83,0-28.67-12.83-28.67-28.67v-73.68c0-15.83,12.83-28.67,28.67-28.67h73.68m0-16H109.53c-24.63,0-44.67,20.04-44.67,44.67v73.68c0,24.63,20.04,44.67,44.67,44.67h73.68c24.63,0,44.67-20.04,44.67-44.67v-73.68c0-24.63-20.04-44.67-44.67-44.67h0Z"/><path class="cls-1" d="M339.9,235.61c15.83,0,28.67,12.83,28.67,28.67v73.68c0,15.83-12.83,28.67-28.67,28.67h-73.68c-15.83,0-28.67-12.83-28.67-28.67v-73.68c0-15.83,12.83-28.67,28.67-28.67h73.68m0-16h-73.68c-24.63,0-44.67,20.04-44.67,44.67v73.68c0,24.63,20.04,44.67,44.67,44.67h73.68c24.63,0,44.67-20.04,44.67-44.67v-73.68c0-24.63-20.04-44.67-44.67-44.67h0Z"/><path class="cls-1" d="M493.68,235.61c15.83,0,28.67,12.83,28.67,28.67v73.68c0,15.83-12.83,28.67-28.67,28.67h-73.68c-15.83,0-28.67-12.83-28.67-28.67v-73.68c0-15.83,12.83-28.67,28.67-28.67h73.68m0-16h-73.68c-24.63,0-44.67,20.04-44.67,44.67v73.68c0,24.63,20.04,44.67,44.67,44.67h73.68c24.63,0,44.67-20.04,44.67-44.67v-73.68c0-24.63-20.04-44.67-44.67-44.67h0Z"/><path class="cls-1" d="M182.64,383.99c15.83,0,28.67,12.83,28.67,28.67v73.68c0,15.83-12.83,28.67-28.67,28.67H108.96c-15.83,0-28.67-12.83-28.67-28.67v-73.68c0-15.83,12.83-28.67,28.67-28.67h73.68m0-16H108.96c-24.63,0-44.67,20.04-44.67,44.67v73.68c0,24.63,20.04,44.67,44.67,44.67h73.68c24.63,0,44.67-20.04,44.67-44.67v-73.68c0-24.63-20.04-44.67-44.67-44.67h0Z"/><path class="cls-1" d="M339.34,383.99c15.83,0,28.67,12.83,28.67,28.67v73.68c0,15.83-12.83,28.67-28.67,28.67h-73.68c-15.83,0-28.67-12.83-28.67-28.67v-73.68c0-15.83,12.83-28.67,28.67-28.67h73.68m0-16h-73.68c-24.63,0-44.67,20.04-44.67,44.67v73.68c0,24.63,20.04,44.67,44.67,44.67h73.68c24.63,0,44.67-20.04,44.67-44.67v-73.68c0-24.63-20.04-44.67-44.67-44.67h0Z"/><path class="cls-1" d="M493.11,383.99c15.83,0,28.67,12.83,28.67,28.67v73.68c0,15.83-12.83,28.67-28.67,28.67h-73.68c-15.83,0-28.67-12.83-28.67-28.67v-73.68c0-15.83,12.83-28.67,28.67-28.67h73.68m0-16h-73.68c-24.63,0-44.67,20.04-44.67,44.67v73.68c0,24.63,20.04,44.67,44.67,44.67h73.68c24.63,0,44.67-20.04,44.67-44.67v-73.68c0-24.63-20.04-44.67-44.67-44.67h0Z"/><rect class="cls-2" x="211.88" y="213.53" width="27.65" height="27.65" rx="13.82" ry="13.82"/><rect class="cls-2" x="365.59" y="213.53" width="27.65" height="27.65" rx="13.82" ry="13.82"/><rect class="cls-2" x="211.88" y="363.23" width="27.65" height="27.65" rx="13.82" ry="13.82"/><rect class="cls-2" x="365.59" y="360.17" width="27.65" height="27.65" rx="13.82" ry="13.82"/></svg>