<?xml version="1.0" encoding="UTF-8"?><svg id="Icon_Set_Artwork" xmlns="http://www.w3.org/2000/svg" viewBox="0 0 600 600"><defs><style>.cls-1{stroke-miterlimit:10;}.cls-1,.cls-2,.cls-3{stroke:#fff;}.cls-1,.cls-3{fill:none;stroke-width:12px;}.cls-2{fill:#fff;stroke-linecap:round;stroke-width:16px;}.cls-2,.cls-3{stroke-linejoin:round;}</style></defs><line class="cls-2" x1="305.07" y1="150.75" x2="305.07" y2="14.32"/><line class="cls-2" x1="305.07" y1="152.84" x2="370.16" y2="103.24"/><line class="cls-2" x1="305.07" y1="152.84" x2="240.69" y2="103.77"/><path class="cls-1" d="M440.95,251.78l-320.86-5.67c-8.93-.8-16.75,5.37-18.36,13.84,3.67-9.67,14.34-15.31,24.56-11.5l278.38,104.01c7.66,2.86,12.77,10.4,12.77,18.84v137.93l20.44,1.84c10.03,.9,18.67-6.99,18.67-17.06v-225.18c0-8.86-6.76-16.26-15.59-17.06Z"/><path class="cls-3" d="M404.67,352.46L126.29,248.46c-10.22-3.83-20.89,1.83-24.56,11.5-.19,1.03-.3,2.12-.3,3.21v201.93c0,1.6,.23,3.15,.64,4.61,2.09,4.91,6.03,8.85,11.11,10.75l4.76,1.78,273.61,102.24c12.6,4.71,25.89-4.97,25.89-18.85v-194.32c0-8.45-5.1-15.98-12.77-18.85Z"/><path class="cls-3" d="M357.24,526.26c-12.35,3.15-26.45-10.43-31.5-30.28-1.49-5.84-2.01-11.56-1.72-16.82,.71-12.67,6.21-22.63,14.93-24.84,12.07-3.07,25.82,9.83,31.15,29,.11,.43,.24,.86,.35,1.3,5.05,19.87-.87,38.52-13.21,41.65Z"/></svg>