<?xml version="1.0" encoding="UTF-8"?><svg id="Icon_Set_Artwork" xmlns="http://www.w3.org/2000/svg" viewBox="0 0 600 600"><defs><style>.cls-1{fill:#fff;}</style></defs><path class="cls-1" d="M442.22,473.62V68.09c0-5.29-6.48-7.83-10.08-3.96l-15.69,16.88c-4.01,4.31-10.83,4.31-14.84,0l-21.51-23.15c-2.3-2.48-6.22-2.48-8.53,0l-21.84,23.51c-4.01,4.31-10.83,4.31-14.84,0l-21.84-23.51c-2.3-2.48-6.22-2.48-8.53,0l-22.83,24.57c-4.01,4.31-10.83,4.31-14.84,0l-22.83-24.57c-2.3-2.48-6.22-2.48-8.53,0l-21.65,23.3c-4.01,4.31-10.83,4.31-14.84,0l-21.65-23.3c-2.3-2.48-6.22-2.48-8.53,0l-21.69,23.35c-4.01,4.31-10.83,4.31-14.84,0l-15.87-17.08c-3.6-3.87-10.08-1.33-10.08,3.96l.08,409.11v.08c0,46.12,37.39,83.51,83.51,83.51h252.27c48.15,0,87.18-39.03,87.18-87.18h-87.18ZM246.79,130.2h142.18v21.75H246.79v-21.75Zm0,95.7h142.18v21.75H246.79v-21.75Zm0,90.3h142.18v21.75H246.79v-21.75ZM176.06,123.55c11.14-1.1,20.43,8.18,19.33,19.33-.82,8.25-7.49,14.91-15.73,15.73-11.14,1.1-20.43-8.18-19.33-19.33,.82-8.25,7.49-14.91,15.73-15.73Zm0,95.7c11.14-1.1,20.43,8.19,19.33,19.33-.82,8.24-7.49,14.91-15.73,15.73-11.14,1.1-20.43-8.18-19.33-19.33,.82-8.25,7.49-14.91,15.73-15.73Zm0,90.3c11.14-1.1,20.43,8.18,19.33,19.33-.82,8.24-7.49,14.91-15.73,15.73-11.14,1.1-20.43-8.18-19.33-19.33,.82-8.25,7.49-14.91,15.73-15.73Zm217.79,99.24H149.75v-12.09h244.1v12.09Zm87.91,132.83c-19.99,0-36.45-28.03-36.45-62.09,0-.09,0-.17,0-.26l36.45,.26,36.45-.16v.16c0,34.06-16.45,62.09-36.45,62.09Z"/></svg>