<?xml version="1.0" encoding="UTF-8"?><svg id="Icon_Set_Artwork" xmlns="http://www.w3.org/2000/svg" viewBox="0 0 600 600"><defs><style>.cls-1{fill:#fff;}.cls-2{fill:none;stroke:#fff;stroke-linejoin:round;stroke-width:12px;}</style></defs><g><path class="cls-2" d="M158.35,56.38l32.67,35.17,32.67-35.17,33,35.52,33-35.52,33.98,36.57,33.98-36.57,32.82,35.32,32.82-35.32,32.86,35.36,32.86-35.36-.08,417.35h0c.04,45.44-36.78,82.3-82.22,82.3H158.35c-47.4,0-85.83-38.43-85.83-85.83h85.83V56.38Z"/><path class="cls-2" d="M158.35,470.2h158.99c0,47.4,38.43,85.83,85.83,85.83h0"/></g><rect class="cls-1" x="200.94" y="423.53" width="240.31" height="11.91"/><rect class="cls-1" x="296.47" y="344.28" width="139.97" height="21.41"/><circle class="cls-1" cx="228.61" cy="354.99" r="17.34"/><rect class="cls-1" x="296.47" y="255.39" width="139.97" height="21.41"/><circle class="cls-1" cx="228.61" cy="266.09" r="17.34"/><rect class="cls-1" x="296.47" y="161.17" width="139.97" height="21.41"/><circle class="cls-1" cx="228.61" cy="171.88" r="17.34"/></svg>