<?xml version="1.0" encoding="UTF-8"?><svg id="Icon_Set_Artwork" xmlns="http://www.w3.org/2000/svg" viewBox="0 0 600 600"><defs><style>.cls-1{fill:#fff;}.cls-2{fill:none;}</style></defs><rect class="cls-1" x="70.51" y="51.76" width="461.77" height="461.77" rx="35.99" ry="35.99"/><g transform="translate(98,98)"><g transform="translate(441,0) scale(0.49,0.49)"><g transform=""><rect x="273.69" y="88.7" width="18.47" height="18.47"/></g></g><g transform="translate(539,0) scale(0.49,0.49)"><g transform=""><rect x="310.63" y="88.7" width="18.47" height="18.47"/></g></g><g transform="translate(588,0) scale(0.49,0.49)"><g transform=""><rect x="329.1" y="88.7" width="18.47" height="18.47"/></g></g><g transform="translate(441,98) scale(0.49,0.49)"><g transform=""><rect x="273.69" y="125.65" width="18.47" height="18.47"/></g></g><g transform="translate(588,98) scale(0.49,0.49)"><g transform=""><rect x="329.1" y="125.65" width="18.47" height="18.47"/></g></g><g transform="translate(490,147) scale(0.49,0.49)"><g transform=""><rect x="292.16" y="144.12" width="18.47" height="18.47"/></g></g><g transform="translate(539,147) scale(0.49,0.49)"><g transform=""><rect x="310.63" y="144.12" width="18.47" height="18.47"/></g></g><g transform="translate(588,196) scale(0.49,0.49)"><g transform=""><rect x="329.1" y="162.59" width="18.47" height="18.47"/></g></g><g transform="translate(392,245) scale(0.49,0.49)"><g transform=""><rect x="255.22" y="181.06" width="18.47" height="18.47"/></g></g><g transform="translate(490,245) scale(0.49,0.49)"><g transform=""><rect x="292.16" y="181.06" width="18.47" height="18.47"/></g></g><g transform="translate(392,294) scale(0.49,0.49)"><g transform=""><rect x="255.22" y="199.53" width="18.47" height="18.47"/></g></g><g transform="translate(490,294) scale(0.49,0.49)"><g transform=""><rect x="292.16" y="199.53" width="18.47" height="18.47"/></g></g><g transform="translate(588,294) scale(0.49,0.49)"><g transform=""><rect x="329.1" y="199.53" width="18.47" height="18.47"/></g></g><g transform="translate(441,343) scale(0.49,0.49)"><g transform=""><rect x="273.69" y="218" width="18.47" height="18.47"/></g></g><g transform="translate(588,343) scale(0.49,0.49)"><g transform=""><rect x="329.1" y="218" width="18.47" height="18.47"/></g></g><g transform="translate(0,392) scale(0.49,0.49)"><g transform=""><rect x="107.45" y="236.47" width="18.47" height="18.47"/></g></g><g transform="translate(147,392) scale(0.49,0.49)"><g transform=""><rect x="162.86" y="236.47" width="18.47" height="18.47"/></g></g><g transform="translate(245,392) scale(0.49,0.49)"><g transform=""><rect x="199.8" y="236.47" width="18.47" height="18.47"/></g></g><g transform="translate(294,392) scale(0.49,0.49)"><g transform=""><rect x="218.27" y="236.47" width="18.47" height="18.47"/></g></g><g transform="translate(392,392) scale(0.49,0.49)"><g transform=""><rect x="255.22" y="236.47" width="18.47" height="18.47"/></g></g><g transform="translate(441,392) scale(0.49,0.49)"><g transform=""><rect x="273.69" y="236.47" width="18.47" height="18.47"/></g></g><g transform="translate(490,392) scale(0.49,0.49)"><g transform=""><rect x="292.16" y="236.47" width="18.47" height="18.47"/></g></g><g transform="translate(539,392) scale(0.49,0.49)"><g transform=""><rect x="310.63" y="236.47" width="18.47" height="18.47"/></g></g><g transform="translate(637,392) scale(0.49,0.49)"><g transform=""><rect x="347.57" y="236.47" width="18.47" height="18.47"/></g></g><g transform="translate(735,392) scale(0.49,0.49)"><g transform=""><rect x="384.51" y="236.47" width="18.47" height="18.47"/></g></g><g transform="translate(245,441) scale(0.49,0.49)"><g transform=""><rect x="199.8" y="254.94" width="18.47" height="18.47"/></g></g><g transform="translate(343,441) scale(0.49,0.49)"><g transform=""><rect x="236.74" y="254.94" width="18.47" height="18.47"/></g></g><g transform="translate(392,441) scale(0.49,0.49)"><g transform=""><rect x="255.22" y="254.94" width="18.47" height="18.47"/></g></g><g transform="translate(441,441) scale(0.49,0.49)"><g transform=""><rect x="273.69" y="254.94" width="18.47" height="18.47"/></g></g><g transform="translate(539,441) scale(0.49,0.49)"><g transform=""><rect x="310.63" y="254.94" width="18.47" height="18.47"/></g></g><g transform="translate(588,441) scale(0.49,0.49)"><g transform=""><rect x="329.1" y="254.94" width="18.47" height="18.47"/></g></g><g transform="translate(637,441) scale(0.49,0.49)"><g transform=""><rect x="347.57" y="254.94" width="18.47" height="18.47"/></g></g><g transform="translate(686,441) scale(0.49,0.49)"><g transform=""><rect x="366.04" y="254.94" width="18.47" height="18.47"/></g></g><g transform="translate(784,441) scale(0.49,0.49)"><g transform=""><rect x="402.98" y="254.94" width="18.47" height="18.47"/></g></g><g transform="translate(980,441) scale(0.49,0.49)"><g transform=""><rect x="476.86" y="254.94" width="18.47" height="18.47"/></g></g><g transform="translate(0,490) scale(0.49,0.49)"><g transform=""><rect x="107.45" y="273.41" width="18.47" height="18.47"/></g></g><g transform="translate(147,490) scale(0.49,0.49)"><g transform=""><rect x="162.86" y="273.41" width="18.47" height="18.47"/></g></g><g transform="translate(196,490) scale(0.49,0.49)"><g transform=""><rect x="181.33" y="273.41" width="18.47" height="18.47"/></g></g><g transform="translate(245,490) scale(0.49,0.49)"><g transform=""><rect x="199.8" y="273.41" width="18.47" height="18.47"/></g></g><g transform="translate(294,490) scale(0.49,0.49)"><g transform=""><rect x="218.27" y="273.41" width="18.47" height="18.47"/></g></g><g transform="translate(343,490) scale(0.49,0.49)"><g transform=""><rect x="236.74" y="273.41" width="18.47" height="18.47"/></g></g><g transform="translate(392,490) scale(0.49,0.49)"><g transform=""><rect x="255.22" y="273.41" width="18.47" height="18.47"/></g></g><g transform="translate(441,490) scale(0.49,0.49)"><g transform=""><rect x="273.69" y="273.41" width="18.47" height="18.47"/></g></g><g transform="translate(490,490) scale(0.49,0.49)"><g transform=""><rect x="292.16" y="273.41" width="18.47" height="18.47"/></g></g><g transform="translate(539,490) scale(0.49,0.49)"><g transform=""><rect x="310.63" y="273.41" width="18.47" height="18.47"/></g></g><g transform="translate(588,490) scale(0.49,0.49)"><g transform=""><rect x="329.1" y="273.41" width="18.47" height="18.47"/></g></g><g transform="translate(637,490) scale(0.49,0.49)"><g transform=""><rect x="347.57" y="273.41" width="18.47" height="18.47"/></g></g><g transform="translate(735,490) scale(0.49,0.49)"><g transform=""><rect x="384.51" y="273.41" width="18.47" height="18.47"/></g></g><g transform="translate(882,490) scale(0.49,0.49)"><g transform=""><rect x="439.92" y="273.41" width="18.47" height="18.47"/></g></g><g transform="translate(980,490) scale(0.49,0.49)"><g transform=""><rect x="476.86" y="273.41" width="18.47" height="18.47"/></g></g><g transform="translate(49,539) scale(0.49,0.49)"><g transform=""><rect x="125.92" y="291.88" width="18.47" height="18.47"/></g></g><g transform="translate(98,539) scale(0.49,0.49)"><g transform=""><rect x="144.39" y="291.88" width="18.47" height="18.47"/></g></g><g transform="translate(343,539) scale(0.49,0.49)"><g transform=""><rect x="236.74" y="291.88" width="18.47" height="18.47"/></g></g><g transform="translate(637,539) scale(0.49,0.49)"><g transform=""><rect x="347.57" y="291.88" width="18.47" height="18.47"/></g></g><g transform="translate(686,539) scale(0.49,0.49)"><g transform=""><rect x="366.04" y="291.88" width="18.47" height="18.47"/></g></g><g transform="translate(784,539) scale(0.49,0.49)"><g transform=""><rect x="402.98" y="291.88" width="18.47" height="18.47"/></g></g><g transform="translate(833,539) scale(0.49,0.49)"><g transform=""><rect x="421.45" y="291.88" width="18.47" height="18.47"/></g></g><g transform="translate(931,539) scale(0.49,0.49)"><g transform=""><rect x="458.39" y="291.88" width="18.47" height="18.47"/></g></g><g transform="translate(980,539) scale(0.49,0.49)"><g transform=""><rect x="476.86" y="291.88" width="18.47" height="18.47"/></g></g><g transform="translate(49,588) scale(0.49,0.49)"><g transform=""><rect x="125.92" y="310.35" width="18.47" height="18.47"/></g></g><g transform="translate(294,588) scale(0.49,0.49)"><g transform=""><rect x="218.27" y="310.35" width="18.47" height="18.47"/></g></g><g transform="translate(343,588) scale(0.49,0.49)"><g transform=""><rect x="236.74" y="310.35" width="18.47" height="18.47"/></g></g><g transform="translate(392,588) scale(0.49,0.49)"><g transform=""><rect x="255.22" y="310.35" width="18.47" height="18.47"/></g></g><g transform="translate(490,588) scale(0.49,0.49)"><g transform=""><rect x="292.16" y="310.35" width="18.47" height="18.47"/></g></g><g transform="translate(539,588) scale(0.49,0.49)"><g transform=""><rect x="310.63" y="310.35" width="18.47" height="18.47"/></g></g><g transform="translate(588,588) scale(0.49,0.49)"><g transform=""><rect x="329.1" y="310.35" width="18.47" height="18.47"/></g></g><g transform="translate(637,588) scale(0.49,0.49)"><g transform=""><rect x="347.57" y="310.35" width="18.47" height="18.47"/></g></g><g transform="translate(735,588) scale(0.49,0.49)"><g transform=""><rect x="384.51" y="310.35" width="18.47" height="18.47"/></g></g><g transform="translate(833,588) scale(0.49,0.49)"><g transform=""><rect x="421.45" y="310.35" width="18.47" height="18.47"/></g></g><g transform="translate(392,637) scale(0.49,0.49)"><g transform=""><rect x="255.22" y="328.82" width="18.47" height="18.47"/></g></g><g transform="translate(441,637) scale(0.49,0.49)"><g transform=""><rect x="273.69" y="328.82" width="18.47" height="18.47"/></g></g><g transform="translate(490,637) scale(0.49,0.49)"><g transform=""><rect x="292.16" y="328.82" width="18.47" height="18.47"/></g></g><g transform="translate(588,637) scale(0.49,0.49)"><g transform=""><rect x="329.1" y="328.82" width="18.47" height="18.47"/></g></g><g transform="translate(686,637) scale(0.49,0.49)"><g transform=""><rect x="366.04" y="328.82" width="18.47" height="18.47"/></g></g><g transform="translate(735,637) scale(0.49,0.49)"><g transform=""><rect x="384.51" y="328.82" width="18.47" height="18.47"/></g></g><g transform="translate(980,637) scale(0.49,0.49)"><g transform=""><rect x="476.86" y="328.82" width="18.47" height="18.47"/></g></g><g transform="translate(441,686) scale(0.49,0.49)"><g transform=""><rect x="273.69" y="347.29" width="18.47" height="18.47"/></g></g><g transform="translate(588,686) scale(0.49,0.49)"><g transform=""><rect x="329.1" y="347.29" width="18.47" height="18.47"/></g></g><g transform="translate(637,686) scale(0.49,0.49)"><g transform=""><rect x="347.57" y="347.29" width="18.47" height="18.47"/></g></g><g transform="translate(784,686) scale(0.49,0.49)"><g transform=""><rect x="402.98" y="347.29" width="18.47" height="18.47"/></g></g><g transform="translate(833,686) scale(0.49,0.49)"><g transform=""><rect x="421.45" y="347.29" width="18.47" height="18.47"/></g></g><g transform="translate(882,686) scale(0.49,0.49)"><g transform=""><rect x="439.92" y="347.29" width="18.47" height="18.47"/></g></g><g transform="translate(931,686) scale(0.49,0.49)"><g transform=""><rect x="458.39" y="347.29" width="18.47" height="18.47"/></g></g><g transform="translate(392,735) scale(0.49,0.49)"><g transform=""><rect x="255.22" y="365.76" width="18.47" height="18.47"/></g></g><g transform="translate(539,735) scale(0.49,0.49)"><g transform=""><rect x="310.63" y="365.76" width="18.47" height="18.47"/></g></g><g transform="translate(588,735) scale(0.49,0.49)"><g transform=""><rect x="329.1" y="365.76" width="18.47" height="18.47"/></g></g><g transform="translate(784,735) scale(0.49,0.49)"><g transform=""><rect x="402.98" y="365.76" width="18.47" height="18.47"/></g></g><g transform="translate(931,735) scale(0.49,0.49)"><g transform=""><rect x="458.39" y="365.76" width="18.47" height="18.47"/></g></g><g transform="translate(980,735) scale(0.49,0.49)"><g transform=""><rect x="476.86" y="365.76" width="18.47" height="18.47"/></g></g><g transform="translate(490,784) scale(0.49,0.49)"><g transform=""><rect x="292.16" y="384.24" width="18.47" height="18.47"/></g></g><g transform="translate(539,784) scale(0.49,0.49)"><g transform=""><rect x="310.63" y="384.24" width="18.47" height="18.47"/></g></g><g transform="translate(637,784) scale(0.49,0.49)"><g transform=""><rect x="347.57" y="384.24" width="18.47" height="18.47"/></g></g><g transform="translate(735,784) scale(0.49,0.49)"><g transform=""><rect x="384.51" y="384.24" width="18.47" height="18.47"/></g></g><g transform="translate(784,784) scale(0.49,0.49)"><g transform=""><rect x="402.98" y="384.24" width="18.47" height="18.47"/></g></g><g transform="translate(833,784) scale(0.49,0.49)"><g transform=""><rect x="421.45" y="384.24" width="18.47" height="18.47"/></g></g><g transform="translate(392,833) scale(0.49,0.49)"><g transform=""><rect x="255.22" y="402.71" width="18.47" height="18.47"/></g></g><g transform="translate(441,833) scale(0.49,0.49)"><g transform=""><rect x="273.69" y="402.71" width="18.47" height="18.47"/></g></g><g transform="translate(490,833) scale(0.49,0.49)"><g transform=""><rect x="292.16" y="402.71" width="18.47" height="18.47"/></g></g><g transform="translate(588,833) scale(0.49,0.49)"><g transform=""><rect x="329.1" y="402.71" width="18.47" height="18.47"/></g></g><g transform="translate(686,833) scale(0.49,0.49)"><g transform=""><rect x="366.04" y="402.71" width="18.47" height="18.47"/></g></g><g transform="translate(735,833) scale(0.49,0.49)"><g transform=""><rect x="384.51" y="402.71" width="18.47" height="18.47"/></g></g><g transform="translate(784,833) scale(0.49,0.49)"><g transform=""><rect x="402.98" y="402.71" width="18.47" height="18.47"/></g></g><g transform="translate(931,833) scale(0.49,0.49)"><g transform=""><rect x="458.39" y="402.71" width="18.47" height="18.47"/></g></g><g transform="translate(980,833) scale(0.49,0.49)"><g transform=""><rect x="476.86" y="402.71" width="18.47" height="18.47"/></g></g><g transform="translate(490,882) scale(0.49,0.49)"><g transform=""><rect x="292.16" y="421.18" width="18.47" height="18.47"/></g></g><g transform="translate(588,882) scale(0.49,0.49)"><g transform=""><rect x="329.1" y="421.18" width="18.47" height="18.47"/></g></g><g transform="translate(686,882) scale(0.49,0.49)"><g transform=""><rect x="366.04" y="421.18" width="18.47" height="18.47"/></g></g><g transform="translate(784,882) scale(0.49,0.49)"><g transform=""><rect x="402.98" y="421.18" width="18.47" height="18.47"/></g></g><g transform="translate(882,882) scale(0.49,0.49)"><g transform=""><rect x="439.92" y="421.18" width="18.47" height="18.47"/></g></g><g transform="translate(980,882) scale(0.49,0.49)"><g transform=""><rect x="476.86" y="421.18" width="18.47" height="18.47"/></g></g><g transform="translate(539,931) scale(0.49,0.49)"><g transform=""><rect x="310.63" y="439.65" width="18.47" height="18.47"/></g></g><g transform="translate(588,931) scale(0.49,0.49)"><g transform=""><rect x="329.1" y="439.65" width="18.47" height="18.47"/></g></g><g transform="translate(735,931) scale(0.49,0.49)"><g transform=""><rect x="384.51" y="439.65" width="18.47" height="18.47"/></g></g><g transform="translate(833,931) scale(0.49,0.49)"><g transform=""><rect x="421.45" y="439.65" width="18.47" height="18.47"/></g></g><g transform="translate(392,980) scale(0.49,0.49)"><g transform=""><rect x="255.22" y="458.12" width="18.47" height="18.47"/></g></g><g transform="translate(441,980) scale(0.49,0.49)"><g transform=""><rect x="273.69" y="458.12" width="18.47" height="18.47"/></g></g><g transform="translate(539,980) scale(0.49,0.49)"><g transform=""><rect x="310.63" y="458.12" width="18.47" height="18.47"/></g></g><g transform="translate(588,980) scale(0.49,0.49)"><g transform=""><rect x="329.1" y="458.12" width="18.47" height="18.47"/></g></g><g transform="translate(637,980) scale(0.49,0.49)"><g transform=""><rect x="347.57" y="458.12" width="18.47" height="18.47"/></g></g><g transform="translate(686,980) scale(0.49,0.49)"><g transform=""><rect x="366.04" y="458.12" width="18.47" height="18.47"/></g></g><g transform="translate(931,980) scale(0.49,0.49)"><g transform=""><rect x="458.39" y="458.12" width="18.47" height="18.47"/></g></g><g transform="translate(0,0) scale(3.43, 3.43)"><g transform=""><g><rect class="cls-2" x="126.84" y="108.1" width="90.51" height="90.51"/><path d="M217.35,88.7H107.45V218H236.74V88.7h-19.39Zm0,109.9H126.84V108.1h90.51v90.51Z"/></g></g></g><g transform="translate(686,0) scale(3.43, 3.43)"><g transform=""><g><rect class="cls-2" x="385.43" y="108.1" width="90.51" height="90.51"/><path d="M475.94,88.7h-109.9V218h129.29V88.7h-19.39Zm0,109.9h-90.51V108.1h90.51v90.51Z"/></g></g></g><g transform="translate(0,686) scale(3.43, 3.43)"><g transform=""><g><rect class="cls-2" x="126.84" y="366.69" width="90.51" height="90.51"/><path d="M217.35,347.29H107.45v129.29H236.74v-129.29h-19.39Zm0,109.9H126.84v-90.51h90.51v90.51Z"/></g></g></g><g transform="translate(98,98) scale(1.47, 1.47)"><g transform=""><rect x="144.39" y="125.65" width="55.41" height="55.41"/></g></g><g transform="translate(784,98) scale(1.47, 1.47)"><g transform=""><rect x="402.98" y="125.65" width="55.41" height="55.41"/></g></g><g transform="translate(98,784) scale(1.47, 1.47)"><g transform=""><rect x="144.39" y="384.24" width="55.41" height="55.41"/></g></g></g></svg>