<?xml version="1.0" encoding="UTF-8"?><svg id="Icon_Set_Artwork" xmlns="http://www.w3.org/2000/svg" viewBox="0 0 600 600"><defs><style>.cls-1{fill:#fff;stroke:#fff;stroke-miterlimit:10;stroke-width:12px;}</style></defs><path class="cls-1" d="M474.44,493.6l-105.62-152.16c-.73-1.06-.62-2.48,.28-3.4,29.45-30.22,47.59-71.51,47.59-117.04,0-92.63-75.09-167.72-167.72-167.72-92.56,0-167.72,75.17-167.72,167.72,0,92.63,75.09,167.72,167.72,167.72,23.87,0,46.58-4.99,67.14-13.98,1.18-.51,2.55-.12,3.28,.94l105.2,152.35c8.35,12.1,24.93,15.13,37.02,6.78l6.05-4.18c12.1-8.35,15.13-24.93,6.78-37.02Zm-225.47-145.55c-70.17,0-127.05-56.88-127.05-127.05s56.88-127.05,127.05-127.05,127.05,56.88,127.05,127.05-56.88,127.05-127.05,127.05Z"/></svg>