<?xml version="1.0" encoding="UTF-8"?><svg id="Icon_Set_Artwork" xmlns="http://www.w3.org/2000/svg" viewBox="0 0 600 600"><defs><style>.cls-1{fill:#fff;}</style></defs><path class="cls-1" d="M255.85,56.88c92.63,0,167.72,75.09,167.72,167.72,0,45.53-18.14,86.82-47.59,117.04-.9,.92-1.01,2.35-.28,3.4l105.62,152.16c8.35,12.1,5.32,28.67-6.78,37.02l-6.05,4.18c-4.62,3.19-9.88,4.72-15.1,4.72-8.45,0-16.76-4.02-21.93-11.49l-105.2-152.35c-.51-.75-1.35-1.16-2.21-1.16-.36,0-.72,.07-1.07,.22-20.56,8.99-43.27,13.98-67.14,13.98-92.63,0-167.72-75.09-167.72-167.72,0-92.56,75.17-167.73,167.72-167.72m0,294.78c70.17,0,127.05-56.88,127.05-127.05s-56.88-127.05-127.05-127.05-127.05,56.88-127.05,127.05,56.88,127.05,127.05,127.05m0-308.78c-24.51,0-48.3,4.81-70.71,14.3-21.64,9.16-41.07,22.27-57.76,38.95-16.69,16.69-29.8,36.12-38.95,57.76-9.49,22.41-14.3,46.2-14.3,70.71,0,24.53,4.81,48.33,14.29,70.74,9.15,21.64,22.25,41.07,38.94,57.76,16.68,16.68,36.12,29.79,57.76,38.94,22.41,9.48,46.21,14.29,70.74,14.29,22.12,0,43.63-3.9,64.06-11.61l100.04,144.87c7.58,10.98,20.09,17.54,33.45,17.54,8.26,0,16.24-2.49,23.05-7.2l6.05-4.18c18.43-12.73,23.07-38.07,10.34-56.5l-100.45-144.72c29.21-33.19,45.19-75.42,45.19-119.93,0-24.53-4.81-48.33-14.29-70.74-9.15-21.64-22.25-41.07-38.94-57.76-16.68-16.68-36.12-29.79-57.76-38.94-22.41-9.48-46.21-14.29-70.74-14.29h0Zm0,294.78c-62.34,0-113.05-50.71-113.05-113.05s50.71-113.05,113.05-113.05,113.05,50.71,113.05,113.05-50.71,113.05-113.05,113.05h0Z"/></svg>