<?xml version="1.0" encoding="UTF-8"?><svg id="Icon_Set_Artwork" xmlns="http://www.w3.org/2000/svg" viewBox="0 0 600 600"><defs><style>.cls-1,.cls-2{fill:#fff;}.cls-2{stroke:#fff;stroke-miterlimit:10;}.cls-3{fill:#639e57;}</style></defs><path class="cls-1" d="M519.15,98.44L255.16,541.19l-17.45-187.69-.04-.48-.08-.48c-.17-.98-.11-1.95,0-2.59L519.15,98.44m8.08-19.05c-1.88,0-4.07,.48-6.56,1.6L228.32,342.12c-2.31,2.2-3.42,7.6-2.56,12.48l19.44,209.18c.75,4.28,2.7,6.71,4.69,6.71,1.18,0,2.37-.84,3.34-2.65L534.71,95.78c3.43-6.39,1.08-16.38-7.48-16.38h0Z"/><path class="cls-1" d="M227.81,376.67L62.95,295.87c-6.59-3.23-6.38-12.7,.35-15.63L532.18,75.91c1.61-.7,3,1.36,1.74,2.59L227.81,376.67Z"/><path class="cls-1" d="M539.92,77.38l-18.12,411.86c-.4,9.06-9.81,14.87-18.08,11.16l-217.27-97.27c-.93-.41-1.22-1.59-.6-2.39L537.11,76.35c.94-1.21,2.87-.5,2.81,1.03Z"/><path class="cls-2" d="M534.72,80.25l-250.02,322.77c-.05,.07-.09,.15-.11,.23l-34.8,162.8c-.14,.63,.72,.96,1.05,.41l67.31-114.76c-2.26,3.15-8.89,2.19-10.68-1.54l-16.88-45.17,43.52,19.49-2.89,4.92L535.66,80.89c.36-.61-.51-1.2-.94-.64Z"/><g><polygon class="cls-3" points="318.16 451.7 331.24 429.4 318.16 451.7 318.16 451.7"/><polygon class="cls-1" points="331.24 429.4 318.16 451.7 318.16 451.7 331.24 429.4 331.24 429.4"/></g><path class="cls-1" d="M539.49,87c-.26,5.83-5.82,4.46-9.21,2.5-3.39-1.95-9.61-8.49-3.67-11.16,8.59-3.87,10.74-5.08,12.3-4.17s.82,7.4,.58,12.84Z"/></svg>