<?xml version="1.0" encoding="UTF-8"?><svg id="Icon_Set_Artwork" xmlns="http://www.w3.org/2000/svg" viewBox="0 0 600 600"><defs><style>.cls-1,.cls-2{fill:#fff;}.cls-3{fill:none;stroke-width:12px;}.cls-3,.cls-2{stroke:#fff;stroke-miterlimit:10;}.cls-4{fill:#639e57;}</style></defs><path class="cls-3" d="M512.75,74.25L43.87,278.58c-6.73,2.93-6.94,12.4-.35,15.63l164.86,80.8h0L512.35,78.93l2.14-2.09c1.26-1.23-.12-3.29-1.74-2.59Z"/><path class="cls-1" d="M266.11,400.28L514.01,80.24c-.12-.12-.24-.23-.36-.34l-247.23,319.18c-.28,.36-.36,.79-.3,1.2Z"/><polygon class="cls-1" points="271.17 403.33 271.17 403.33 286.78 410.32 271.17 403.33"/><polygon class="cls-2" points="314.69 422.82 311.8 427.74 314.69 422.82 286.78 410.32 314.69 422.82"/><path class="cls-3" d="M288.05,448.5l-16.88-45.17-4.16-1.86c-.51-.23-.82-.69-.9-1.19l-.84,1.09c-.05,.07-.09,.15-.11,.23l-35.41,163.28c.83,.55,.83,1.17,1.66-.08l67.31-114.76c-2.26,3.15-8.89,2.19-10.68-1.54Z"/><path class="cls-2" d="M514.95,81.41l1.28-2.18c.36-.61-.51-1.2-.94-.64l-1.28,1.65c.35,.36,.66,.75,.94,1.17Z"/><path class="cls-3" d="M517.68,74.69l-4.03,5.21c.12,.11,.25,.22,.36,.34l1.28-1.65c.44-.56,1.3,.02,.94,.64l-1.28,2.18c-.28-.42-.59-.81-.94-1.17l-247.9,320.04c.08,.5,.39,.96,.9,1.19l4.16,1.86,15.62,6.99,27.91,12.49,3.62,1.62,165.97,74.3c8.28,3.71,17.68-2.1,18.08-11.16l18.12-411.86c.07-1.53-1.87-2.24-2.81-1.03Z"/><g><polygon class="cls-4" points="298.72 450.04 311.8 427.74 298.72 450.04 298.72 450.04"/><polygon class="cls-1" points="311.8 427.74 298.72 450.04 298.72 450.04 311.8 427.74 311.8 427.74"/></g><path class="cls-1" d="M520.06,85.34c-.26,5.83-5.82,4.46-9.21,2.5-3.39-1.95-9.61-8.49-3.67-11.16,8.59-3.87,10.74-5.08,12.3-4.17s.82,7.4,.58,12.84Z"/><polygon class="cls-1" points="310.34 415.24 298.99 437.28 237.21 544.8 234.12 547.09 234.54 554.64 240.47 561.65 323.53 420.29 310.34 415.24 310.34 415.24"/><path class="cls-3" d="M230.43,565.53l34.73-163.93c.02-.08,.05-.16,.11-.23l.84-1.09c-.06-.41,.02-.84,.3-1.2L513.65,79.9c-.4-.36-.83-.69-1.3-.97L208.38,375.01l17.39,187.12c.67,3.85,4.02,3.81,4.66,3.4Z"/></svg>