<?xml version="1.0" encoding="UTF-8"?><svg id="Icon_Set_Artwork" xmlns="http://www.w3.org/2000/svg" viewBox="0 0 600 600"><defs><style>.cls-1,.cls-2{fill:#fff;}.cls-2{stroke:#fff;stroke-linejoin:round;stroke-width:6px;}</style></defs><path class="cls-1" d="M229.29,208.73l9.78,30.02c8.84,2.06,17.32,5.18,25.31,9.22l12.09-6.51,.3,.32,.59-.32,.3,.32,.59-.32,.3,.32,.59-.32,.3,.32,.59-.32,.3,.32,.59-.32,.3,.32,.59-.32,.3,.32,.59-.32,.3,.32,.59-.32,.3,.32,.59-.32,.3,.32,.59-.32,.3,.32,.59-.32,.3,.32,.59-.32,.3,.32,.59-.32,.3,.32,.59-.32,.3,.32,.59-.32,.3,.32,.59-.32,.3,.32,.59-.32,.3,.32,.59-.32,.3,.32,.59-.32,.3,.32,.59-.32,.3,.32,.59-.32,.3,.32,.59-.32,.3,.32,.59-.32,.3,.32,.59-.32,.3,.32,.59-.32,.3,.32,.59-.32,.3,.32,.59-.32,.3,.32,.59-.32,.3,.32,.59-.32,.3,.32,.59-.32,.3,.32,.59-.32,22.6,24.11-12.99,28.61c7.42,12.35,12.88,26.18,15.92,40.97l28.16,9.88v34.09l-28.15,10.43c-3.03,14.79-8.49,28.62-15.9,40.98l13.37,28.22-22.6,24.11-.6-.31-.29,.31-.6-.31-.29,.31-.6-.31-.29,.31-.6-.31-.29,.31-.6-.31-.29,.31-.6-.31-.29,.31-.6-.31-.29,.31-.6-.31-.29,.31-.6-.31-.29,.31-.6-.31-.29,.31-.6-.31-.29,.31-.6-.31-.29,.31-.6-.31-.29,.31-.6-.31-.29,.31-.6-.31-.29,.31-.6-.31-.29,.31-.6-.31-.29,.31-.6-.31-.29,.31-.6-.31-.29,.31-.6-.31-.29,.31-.6-.31-.29,.31-.6-.31-.29,.31-.6-.31-.29,.31-.6-.31-.29,.31-.6-.31-.29,.31-.6-.31-.29,.31-.6-.31-.29,.31-.6-.31-.29,.31-.6-.31-.29,.31-.6-.31-.29,.31-.6-.31-.29,.31-12.13-6.26c-8.08,4.12-16.66,7.3-25.62,9.39l-9.26,30.04h-59.45l-9.78-30.02c-8.84-2.06-17.32-5.18-25.3-9.22l-12.09,6.51-.3-.32-.59,.32-.3-.32-.59,.32-.3-.32-.59,.32-.3-.32-.59,.32-.3-.32-.59,.32-.3-.32-.59,.32-.3-.32-.59,.32-.3-.32-.59,.32-.3-.32-.59,.32-.3-.32-.59,.32-.3-.32-.59,.32-.3-.32-.59,.32-.3-.32-.59,.32-.3-.32-.59,.32-.3-.32-.59,.32-.3-.32-.59,.32-.3-.32-.59,.32-.3-.32-.59,.32-.3-.32-.59,.32-.3-.32-.59,.32-.3-.32-.59,.32-.3-.32-.59,.32-.3-.32-.59,.32-.3-.32-.59,.32-.3-.32-.59,.32-.3-.32-.59,.32-.3-.32-.59,.32-.3-.32-.59,.32-.3-.32-.59,.32-.3-.32-.59,.32-.3-.32-.59,.32-22.6-24.11,12.99-28.61c-7.42-12.35-12.88-26.18-15.92-40.97l-28.16-9.88v-34.09l28.15-10.43c3.03-14.79,8.49-28.62,15.9-40.98l-13.37-28.22,22.6-24.11,.6,.31,.29-.31,.6,.31,.29-.31,.6,.31,.29-.31,.6,.31,.29-.31,.6,.31,.29-.31,.6,.31,.29-.31,.6,.31,.29-.31,.6,.31,.29-.31,.6,.31,.29-.31,.6,.31,.29-.31,.6,.31,.29-.31,.6,.31,.29-.31,.6,.31,.29-.31,.6,.31,.29-.31,.6,.31,.29-.31,.6,.31,.29-.31,.6,.31,.29-.31,.6,.31,.29-.31,.6,.31,.29-.31,.6,.31,.29-.31,.6,.31,.29-.31,.6,.31,.29-.31,.6,.31,.29-.31,.6,.31,.29-.31,.6,.31,.29-.31,.6,.31,.29-.31,.6,.31,.29-.31,.6,.31,.29-.31,.6,.31,.29-.31,.6,.31,.29-.31,.6,.31,.29-.31,12.13,6.26c8.08-4.12,16.66-7.3,25.62-9.39l9.26-30.04h59.45m-29.44,211.98c24.5-6.55,42.64-30.17,42.64-58.33s-18.14-51.79-42.64-58.33c-24.5,6.55-42.64,30.17-42.64,58.33s18.14,51.78,42.64,58.33m29.44-223.98h-59.46c-5.27,0-9.92,3.43-11.47,8.47l-7.3,23.68c-5.41,1.59-10.73,3.56-15.9,5.89l-6.83-3.53c-1.75-.9-3.63-1.34-5.5-1.34-.15,0-.3,0-.44,0-.15,0-.3,0-.44,0s-.3,0-.44,0c-.15,0-.3,0-.44,0s-.3,0-.44,0c-.15,0-.3,0-.44,0s-.3,0-.44,0c-.15,0-.3,0-.44,0s-.3,0-.44,0c-.15,0-.3,0-.44,0s-.3,0-.44,0c-.15,0-.3,0-.44,0s-.3,0-.44,0c-.15,0-.3,0-.44,0s-.3,0-.44,0c-.15,0-.3,0-.44,0s-.3,0-.44,0c-.15,0-.3,0-.44,0s-.3,0-.44,0c-.15,0-.3,0-.44,0s-.3,0-.44,0c-.15,0-.3,0-.44,0s-.3,0-.44,0c-.15,0-.3,0-.44,0s-.3,0-.44,0c-.15,0-.3,0-.44,0s-.3,0-.44,0c-.15,0-.3,0-.44,0s-.3,0-.44,0c-.15,0-.3,0-.44,0s-.3,0-.44,0c-.15,0-.3,0-.44,0s-.3,0-.44,0c-.15,0-.3,0-.44,0s-.3,0-.44,0c-.15,0-.3,0-.44,0s-.3,0-.44,0c-.15,0-.3,0-.44,0s-.3,0-.44,0c-.15,0-.3,0-.44,0s-.3,0-.44,0c-.15,0-.3,0-.44,0s-.3,0-.44,0c-.15,0-.3,0-.44,0s-.3,0-.44,0c-.15,0-.3,0-.44,0s-.3,0-.44,0c-.15,0-.3,0-.44,0s-.3,0-.44,0c-.15,0-.3,0-.44,0s-.3,0-.44,0c-.15,0-.3,0-.44,0s-.3,0-.44,0c-.15,0-.3,0-.44,0s-.3,0-.44,0c-.15,0-.3,0-.44,0s-.3,0-.44,0c-.15,0-.3,0-.44,0s-.3,0-.44,0c-.15,0-.3,0-.44,0s-.3,0-.44,0c-.15,0-.3,0-.44,0-3.24,0-6.43,1.31-8.76,3.79l-22.6,24.11c-3.37,3.6-4.2,8.89-2.09,13.34l10.7,22.58c-5.51,10.23-9.74,21.11-12.63,32.48l-22.08,8.18c-4.71,1.74-7.83,6.23-7.83,11.25v34.09c0,5.1,3.22,9.64,8.03,11.32l21.93,7.69c2.9,11.36,7.15,22.23,12.67,32.45l-10.46,23.03c-2.01,4.42-1.15,9.62,2.17,13.17l22.6,24.11c2.33,2.48,5.52,3.79,8.76,3.79,.15,0,.3,0,.44,0,.15,0,.3,0,.44,0s.3,0,.44,0c.15,0,.3,0,.44,0s.3,0,.44,0c.15,0,.3,0,.44,0s.3,0,.44,0c.15,0,.3,0,.44,0s.3,0,.44,0c.15,0,.3,0,.44,0s.3,0,.44,0c.15,0,.3,0,.44,0s.3,0,.44,0c.15,0,.3,0,.44,0s.3,0,.44,0c.15,0,.3,0,.44,0s.3,0,.44,0c.15,0,.3,0,.44,0s.3,0,.44,0c.15,0,.3,0,.44,0s.3,0,.44,0c.15,0,.3,0,.44,0s.3,0,.44,0c.15,0,.3,0,.44,0s.3,0,.44,0c.15,0,.3,0,.44,0s.3,0,.44,0c.15,0,.3,0,.44,0s.3,0,.44,0c.15,0,.3,0,.44,0s.3,0,.44,0c.15,0,.3,0,.44,0s.3,0,.44,0c.15,0,.3,0,.44,0s.3,0,.44,0c.15,0,.3,0,.44,0s.3,0,.44,0c.15,0,.3,0,.44,0s.3,0,.44,0c.15,0,.3,0,.44,0s.3,0,.44,0c.15,0,.3,0,.44,0s.3,0,.44,0c.15,0,.3,0,.44,0s.3,0,.44,0c.15,0,.3,0,.44,0s.3,0,.44,0c.15,0,.3,0,.44,0s.3,0,.44,0c.15,0,.3,0,.44,0s.3,0,.44,0c.15,0,.3,0,.44,0s.3,0,.44,0c.15,0,.3,0,.44,0s.3,0,.44,0c.15,0,.3,0,.44,0s.3,0,.44,0c.15,0,.3,0,.44,0s.3,0,.44,0c.15,0,.3,0,.44,0s.3,0,.44,0c.15,0,.3,0,.44,0,1.94,0,3.89-.47,5.69-1.44l6.75-3.63c5.07,2.25,10.28,4.16,15.57,5.71l7.76,23.81c1.61,4.94,6.21,8.28,11.41,8.28h59.46c5.27,0,9.92-3.43,11.47-8.47l7.3-23.68c5.41-1.59,10.73-3.56,15.9-5.89l6.83,3.53c1.75,.9,3.63,1.34,5.5,1.34,.15,0,.3,0,.44,0,.15,0,.3,0,.44,0s.3,0,.44,0c.15,0,.3,0,.44,0s.3,0,.44,0c.15,0,.3,0,.44,0s.3,0,.44,0c.15,0,.3,0,.44,0s.3,0,.44,0c.15,0,.3,0,.44,0s.3,0,.44,0c.15,0,.3,0,.44,0s.3,0,.44,0c.15,0,.3,0,.44,0s.3,0,.44,0c.15,0,.3,0,.44,0s.3,0,.44,0c.15,0,.3,0,.44,0s.3,0,.44,0c.15,0,.3,0,.44,0s.3,0,.44,0c.15,0,.3,0,.44,0s.3,0,.44,0c.15,0,.3,0,.44,0s.3,0,.44,0c.15,0,.3,0,.44,0s.3,0,.44,0c.15,0,.3,0,.44,0s.3,0,.44,0c.15,0,.3,0,.44,0s.3,0,.44,0c.15,0,.3,0,.44,0s.3,0,.44,0c.15,0,.3,0,.44,0s.3,0,.44,0c.15,0,.3,0,.44,0s.3,0,.44,0c.15,0,.3,0,.44,0s.3,0,.44,0c.15,0,.3,0,.44,0s.3,0,.44,0c.15,0,.3,0,.44,0s.3,0,.44,0c.15,0,.3,0,.44,0s.3,0,.44,0c.15,0,.3,0,.44,0s.3,0,.44,0c.15,0,.3,0,.44,0s.3,0,.44,0c.15,0,.3,0,.44,0s.3,0,.44,0c.15,0,.3,0,.44,0s.3,0,.44,0c.15,0,.3,0,.44,0s.3,0,.44,0c.15,0,.3,0,.44,0s.3,0,.44,0c.15,0,.3,0,.44,0s.3,0,.44,0c.15,0,.3,0,.44,0s.3,0,.44,0c.15,0,.3,0,.44,0,3.24,0,6.43-1.31,8.76-3.79l22.6-24.11c3.37-3.6,4.2-8.89,2.09-13.34l-10.7-22.58c5.51-10.23,9.74-21.11,12.63-32.48l22.08-8.18c4.71-1.74,7.83-6.23,7.83-11.25v-34.09c0-5.1-3.22-9.64-8.03-11.32l-21.93-7.69c-2.9-11.36-7.15-22.23-12.67-32.45l10.46-23.03c2.01-4.42,1.15-9.62-2.17-13.17l-22.6-24.11c-2.33-2.48-5.52-3.79-8.76-3.79-.15,0-.3,0-.44,0-.15,0-.3,0-.44,0s-.3,0-.44,0c-.15,0-.3,0-.44,0s-.3,0-.44,0c-.15,0-.3,0-.44,0s-.3,0-.44,0c-.15,0-.3,0-.44,0s-.3,0-.44,0c-.15,0-.3,0-.44,0s-.3,0-.44,0c-.15,0-.3,0-.44,0s-.3,0-.44,0c-.15,0-.3,0-.44,0s-.3,0-.44,0c-.15,0-.3,0-.44,0s-.3,0-.44,0c-.15,0-.3,0-.44,0s-.3,0-.44,0c-.15,0-.3,0-.44,0s-.3,0-.44,0c-.15,0-.3,0-.44,0s-.3,0-.44,0c-.15,0-.3,0-.44,0s-.3,0-.44,0c-.15,0-.3,0-.44,0s-.3,0-.44,0c-.15,0-.3,0-.44,0s-.3,0-.44,0c-.15,0-.3,0-.44,0s-.3,0-.44,0c-.15,0-.3,0-.44,0s-.3,0-.44,0c-.15,0-.3,0-.44,0s-.3,0-.44,0c-.15,0-.3,0-.44,0s-.3,0-.44,0c-.15,0-.3,0-.44,0s-.3,0-.44,0c-.15,0-.3,0-.44,0s-.3,0-.44,0c-.15,0-.3,0-.44,0s-.3,0-.44,0c-.15,0-.3,0-.44,0s-.3,0-.44,0c-.15,0-.3,0-.44,0s-.3,0-.44,0c-.15,0-.3,0-.44,0s-.3,0-.44,0c-.15,0-.3,0-.44,0s-.3,0-.44,0c-.15,0-.3,0-.44,0s-.3,0-.44,0c-.15,0-.3,0-.44,0s-.3,0-.44,0c-.15,0-.3,0-.44,0s-.3,0-.44,0c-.15,0-.3,0-.44,0s-.3,0-.44,0c-.15,0-.3,0-.44,0s-.3,0-.44,0c-.15,0-.3,0-.44,0-1.94,0-3.89,.47-5.69,1.44l-6.75,3.63c-5.07-2.25-10.28-4.16-15.57-5.71l-7.76-23.81c-1.61-4.94-6.21-8.28-11.41-8.28h0Zm-29.44,211.43c-18.19-6.39-30.64-24.74-30.64-45.78s12.45-39.39,30.64-45.78c18.19,6.39,30.64,24.74,30.64,45.78s-12.45,39.39-30.64,45.78h0Z"/><path class="cls-2" d="M331.27,379.11v-34.09l-28.16-9.88c-3.04-14.79-8.5-28.61-15.92-40.97l12.99-28.61-22.6-24.11-26.46,14.26c-11.59-7.91-24.55-13.73-38.42-16.96l-9.78-30.02h-31.97l-9.26,30.04c-13.87,3.24-26.83,9.06-38.41,16.98l-26.82-13.85-22.6,24.11,13.37,28.22c-7.42,12.36-12.87,26.18-15.9,40.98l-28.15,10.43v34.09l28.16,9.88c3.04,14.79,8.5,28.61,15.92,40.97l-12.99,28.61,22.6,24.11,26.46-14.26c11.59,7.91,24.55,13.73,38.42,16.96l9.78,30.02h31.97l9.26-30.04c13.87-3.24,26.83-9.06,38.41-16.98l26.82,13.85,22.6-24.11-13.37-28.22c7.42-12.36,12.87-26.18,15.9-40.98l28.15-10.43Zm-144.06,43.4c-31.14,0-56.38-26.92-56.38-60.14s25.24-60.14,56.38-60.14,56.38,26.92,56.38,60.14-25.24,60.14-56.38,60.14Z"/><path class="cls-1" d="M428.74,126.29l39.27,3.88,8.03,34.71c9.89,4.83,18.82,11.5,26.44,19.57l21.15-2.57,.04,.1,.85-.1,.04,.1,.85-.1,.04,.1,.85-.1,.04,.1,.85-.1,.04,.1,.85-.1,.04,.1,.85-.1,.04,.1,.85-.1,.04,.1,.85-.1,.04,.1,.85-.1,.04,.1,.85-.1,.04,.1,.85-.1,.04,.1,.85-.1,.04,.1,.85-.1,.04,.1,.85-.1,.04,.1,.85-.1,16.48,38.21-24.18,24.79c.27,3.04,.41,6.12,.41,9.23,0,9.37-1.23,18.43-3.53,27l19.83,28.59-22.79,34.33-.74-.23-.15,.23-.74-.23-.15,.23-.74-.23-.15,.23-.74-.23-.15,.23-.74-.23-.15,.23-.74-.23-.15,.23-.74-.23-.15,.23-.74-.23-.15,.23-.74-.23-.15,.23-.74-.23-.15,.23-.74-.23-.15,.23-.74-.23-.15,.23-.74-.23-.15,.23-.74-.23-.15,.23-.74-.23-.15,.23-22.85-7.05c-8.2,5.55-17.27,9.76-26.95,12.33l-13.3,32.62-.86-.08-.03,.08-.86-.08-.03,.08-.86-.08-.03,.08-.86-.08-.03,.08-.86-.08-.03,.08-.86-.08-.03,.08-.86-.08-.03,.08-.86-.08-.03,.08-.86-.08-.03,.08-.86-.08-.03,.08-.86-.08-.03,.08-.86-.08-.03,.08-.86-.08-.03,.08-.86-.08-.03,.08-.86-.08-.03,.08-39.27-3.88-8.03-34.71c-9.89-4.84-18.82-11.5-26.44-19.57l-21.15,2.57-.04-.1-.85,.1-.04-.1-.85,.1-.04-.1-.85,.1-.04-.1-.85,.1-.04-.1-.85,.1-.04-.1-.85,.1-.04-.1-.85,.1-.04-.1-.85,.1-.04-.1-.85,.1-.04-.1-.85,.1-.04-.1-.85,.1-.04-.1-.85,.1-.04-.1-.85,.1-.04-.1-.85,.1-.04-.1-.85,.1-16.48-38.21,24.18-24.79c-.27-3.04-.41-6.12-.41-9.23,0-9.37,1.23-18.43,3.53-27l-19.83-28.59,22.79-34.33,.74,.23,.15-.23,.74,.23,.15-.23,.74,.23,.15-.23,.74,.23,.15-.23,.74,.23,.15-.23,.74,.23,.15-.23,.74,.23,.15-.23,.74,.23,.15-.23,.74,.23,.15-.23,.74,.23,.15-.23,.74,.23,.15-.23,.74,.23,.15-.23,.74,.23,.15-.23,.74,.23,.15-.23,.74,.23,.15-.23,22.85,7.05c8.2-5.55,17.27-9.76,26.95-12.33l13.3-32.62,.86,.08,.03-.08,.86,.08,.03-.08,.86,.08,.03-.08,.86,.08,.03-.08,.86,.08,.03-.08,.86,.08,.03-.08,.86,.08,.03-.08,.86,.08,.03-.08,.86,.08,.03-.08,.86,.08,.03-.08,.86,.08,.03-.08,.86,.08,.03-.08,.86,.08,.03-.08,.86,.08,.03-.08,.86,.08,.03-.08m2.31,178.13c23.14-3.48,40.94-24.67,40.94-50.31s-17.8-46.83-40.94-50.31c-23.14,3.48-40.94,24.67-40.94,50.31s17.8,46.83,40.94,50.31m-2.31-190.13c-.15,0-.3,0-.45,0-.15,0-.3,0-.45,0s-.3,0-.45,0c-.15,0-.3,0-.45,0-.15,0-.3,0-.45,0-.15,0-.3,0-.45,0-.15,0-.3,0-.45,0-.15,0-.3,0-.45,0s-.3,0-.45,0c-.15,0-.3,0-.45,0s-.3,0-.45,0c-.15,0-.3,0-.45,0s-.3,0-.45,0c-.15,0-.3,0-.45,0-.15,0-.3,0-.45,0-.15,0-.3,0-.45,0-.15,0-.3,0-.45,0-.15,0-.3,0-.45,0-.15,0-.3,0-.45,0-.15,0-.3,0-.45,0s-.3,0-.45,0c-.15,0-.3,0-.45,0-.15,0-.3,0-.45,0-.15,0-.3,0-.45,0-.15,0-.3,0-.45,0-.15,0-.3,0-.45,0-.15,0-.3,0-.45,0-.15,0-.3,0-.45,0s-.3,0-.45,0c-.15,0-.3,0-.45,0-4.84,0-9.25,2.92-11.11,7.47l-11.13,27.31c-6.87,2.29-13.48,5.32-19.76,9.07l-17.55-5.42c-1.17-.36-2.36-.53-3.54-.53-.15,0-.3,0-.45,0-.15,0-.3,0-.45,0s-.3,0-.45,0c-.15,0-.3,0-.45,0s-.3,0-.45,0c-.15,0-.3,0-.45,0s-.3,0-.45,0c-.15,0-.3,0-.45,0s-.3,0-.45,0c-.15,0-.3,0-.45,0s-.3,0-.45,0c-.15,0-.3,0-.45,0s-.3,0-.45,0c-.15,0-.3,0-.45,0s-.3,0-.45,0c-.15,0-.3,0-.45,0s-.3,0-.45,0c-.15,0-.3,0-.45,0s-.3,0-.45,0c-.15,0-.3,0-.45,0s-.3,0-.45,0c-.15,0-.3,0-.45,0s-.3,0-.45,0c-.15,0-.3,0-.45,0s-.3,0-.45,0c-.15,0-.3,0-.45,0s-.3,0-.45,0c-.15,0-.3,0-.45,0s-.3,0-.45,0c-.15,0-.3,0-.45,0-3.94,0-7.73,1.95-10,5.36l-22.79,34.33c-2.72,4.1-2.66,9.44,.14,13.48l16.77,24.17c-1.73,8.03-2.6,16.28-2.6,24.58,0,1.54,.03,3.1,.1,4.67l-20.46,20.97c-3.4,3.48-4.36,8.67-2.43,13.13l16.48,38.21c1.91,4.44,6.27,7.25,11.01,7.25,.15,0,.3,0,.45,0,.15,0,.3,0,.45,0s.3,0,.45,0c.15,0,.3,0,.45,0s.3,0,.45,0c.15,0,.3,0,.45,0s.3,0,.45,0c.15,0,.3,0,.45,0s.3,0,.45,0c.15,0,.3,0,.45,0s.3,0,.45,0c.15,0,.3,0,.45,0s.3,0,.45,0c.15,0,.3,0,.45,0s.3,0,.45,0c.15,0,.3,0,.45,0s.3,0,.45,0c.15,0,.3,0,.45,0s.3,0,.45,0c.15,0,.3,0,.45,0s.3,0,.45,0c.15,0,.3,0,.45,0s.3,0,.45,0c.15,0,.3,0,.45,0s.3,0,.45,0c.15,0,.3,0,.45,0s.3,0,.45,0c.15,0,.3,0,.45,0s.3,0,.45,0c.15,0,.3,0,.45,0,.48,0,.97-.03,1.45-.09l15.36-1.87c6.22,5.87,13.03,10.9,20.34,15.01l6.79,29.35c1.16,5.01,5.39,8.73,10.51,9.24l39.27,3.88c.4,.04,.79,.06,1.19,.06,.15,0,.3,0,.45,0,.15,0,.3,0,.45,0s.3,0,.45,0c.15,0,.3,0,.45,0s.3,0,.45,0c.15,0,.3,0,.45,0s.3,0,.45,0c.15,0,.3,0,.45,0s.3,0,.45,0c.15,0,.3,0,.45,0s.3,0,.45,0c.15,0,.3,0,.45,0s.3,0,.45,0c.15,0,.3,0,.45,0s.3,0,.45,0c.15,0,.3,0,.45,0s.3,0,.45,0c.15,0,.3,0,.45,0s.3,0,.45,0c.15,0,.3,0,.45,0s.3,0,.45,0c.15,0,.3,0,.45,0s.3,0,.45,0c.15,0,.3,0,.45,0s.3,0,.45,0c.15,0,.3,0,.45,0s.3,0,.45,0c.15,0,.3,0,.45,0s.3,0,.45,0c.15,0,.3,0,.45,0,4.84,0,9.25-2.92,11.11-7.47l11.13-27.31c6.87-2.29,13.48-5.32,19.76-9.07l17.55,5.42c1.17,.36,2.36,.53,3.54,.53,.15,0,.3,0,.45,0,.15,0,.3,0,.45,0s.3,0,.45,0c.15,0,.3,0,.45,0s.3,0,.45,0c.15,0,.3,0,.45,0s.3,0,.45,0c.15,0,.3,0,.45,0s.3,0,.45,0c.15,0,.3,0,.45,0s.3,0,.45,0c.15,0,.3,0,.45,0s.3,0,.45,0c.15,0,.3,0,.45,0s.3,0,.45,0c.15,0,.3,0,.45,0s.3,0,.45,0c.15,0,.3,0,.45,0s.3,0,.45,0c.15,0,.3,0,.45,0s.3,0,.45,0c.15,0,.3,0,.45,0s.3,0,.45,0c.15,0,.3,0,.45,0s.3,0,.45,0c.15,0,.3,0,.45,0s.3,0,.45,0c.15,0,.3,0,.45,0s.3,0,.45,0c.15,0,.3,0,.45,0,3.94,0,7.73-1.95,10-5.36l22.79-34.33c2.72-4.1,2.66-9.44-.14-13.48l-16.77-24.17c1.73-8.03,2.6-16.28,2.6-24.58,0-1.54-.03-3.1-.1-4.67l20.46-20.97c3.4-3.48,4.36-8.67,2.43-13.13l-16.48-38.21c-1.91-4.44-6.27-7.25-11.01-7.25-.15,0-.3,0-.45,0-.15,0-.3,0-.45,0s-.3,0-.45,0c-.15,0-.3,0-.45,0s-.3,0-.45,0c-.15,0-.3,0-.45,0s-.3,0-.45,0c-.15,0-.3,0-.45,0s-.3,0-.45,0c-.15,0-.3,0-.45,0s-.3,0-.45,0c-.15,0-.3,0-.45,0s-.3,0-.45,0c-.15,0-.3,0-.45,0s-.3,0-.45,0c-.15,0-.3,0-.45,0s-.3,0-.45,0c-.15,0-.3,0-.45,0s-.3,0-.45,0c-.15,0-.3,0-.45,0s-.3,0-.45,0c-.15,0-.3,0-.45,0s-.3,0-.45,0c-.15,0-.3,0-.45,0s-.3,0-.45,0c-.15,0-.3,0-.45,0s-.3,0-.45,0c-.15,0-.3,0-.45,0s-.3,0-.45,0c-.15,0-.3,0-.45,0-.48,0-.97,.03-1.45,.09l-15.36,1.87c-6.22-5.87-13.03-10.9-20.33-15.01l-6.79-29.35c-1.16-5.01-5.39-8.73-10.51-9.24l-39.27-3.88c-.4-.04-.79-.06-1.19-.06h0Zm2.31,177.94c-16.62-3.45-28.94-19.5-28.94-38.12s12.32-34.67,28.94-38.12c16.62,3.45,28.94,19.5,28.94,38.12s-12.32,34.67-28.94,38.12h0Z"/><path class="cls-2" d="M510.36,252.55c0-3.15-.14-6.27-.41-9.34l24.58-25.09-16.75-38.68-33.7,4.08c-8.05-8.84-17.63-16.1-28.28-21.29l-8.16-35.13-39.91-3.93-13.52,33.02c-11.48,3.04-22.13,8.33-31.49,15.41l-32.74-10.06-23.16,34.75,20.16,28.94c-2.34,8.68-3.59,17.85-3.59,27.34,0,3.15,.14,6.27,.41,9.34l-24.58,25.09,16.75,38.68,33.7-4.08c8.05,8.84,17.63,16.1,28.28,21.29l8.16,35.13,39.91,3.93,13.52-33.02c11.48-3.04,22.13-8.33,31.49-15.41l32.74,10.06,23.16-34.75-20.16-28.94c2.34-8.68,3.59-17.85,3.59-27.34Zm-93.49,51.44c-26.74,0-48.42-23.03-48.42-51.44s21.68-51.44,48.42-51.44,48.42,23.03,48.42,51.44-21.68,51.44-48.42,51.44Z"/></svg>