<?xml version="1.0" encoding="UTF-8"?><svg id="Icon_Set_Artwork" xmlns="http://www.w3.org/2000/svg" viewBox="0 0 600 600"><defs><style>.cls-1{fill:#fff;}</style></defs><path class="cls-1" d="M199.7,204.7l10.37,31.84c14.71,3.43,28.45,9.6,40.74,17.99l28.06-15.12,23.97,25.57-13.78,30.34c7.87,13.1,13.66,27.76,16.89,43.45l29.86,10.47v36.16l-29.85,11.06c-3.22,15.69-9,30.35-16.87,43.45l14.18,29.93-23.97,25.57-28.45-14.69c-12.28,8.4-26.03,14.57-40.73,18.01l-9.82,31.85h-33.9l-10.37-31.84c-14.71-3.43-28.45-9.6-40.74-17.99l-28.06,15.12-23.97-25.57,13.78-30.34c-7.87-13.1-13.66-27.76-16.89-43.45l-29.87-10.47v-36.16l29.85-11.06c3.22-15.69,9-30.35,16.87-43.45l-14.18-29.93,23.97-25.57,28.44,14.69c12.28-8.4,26.03-14.57,40.73-18.01l9.82-31.85h33.9m-16.64,226.71c33.02,0,59.79-28.55,59.79-63.78s-26.77-63.78-59.79-63.78-59.79,28.55-59.79,63.78,26.77,63.78,59.79,63.78m16.64-238.71h-33.9c-5.27,0-9.92,3.43-11.47,8.47l-7.85,25.48c-11.17,3.25-21.85,7.96-31.9,14.07l-22.27-11.5c-1.75-.9-3.63-1.34-5.5-1.34-3.24,0-6.43,1.31-8.76,3.79l-23.97,25.57c-3.37,3.6-4.2,8.89-2.09,13.34l11.5,24.28c-5.96,11-10.52,22.72-13.6,34.97l-23.77,8.81c-4.71,1.74-7.83,6.23-7.83,11.25v36.16c0,5.1,3.22,9.64,8.03,11.32l23.62,8.28c3.09,12.25,7.66,23.95,13.64,34.94l-11.24,24.75c-2.01,4.42-1.15,9.62,2.17,13.17l23.97,25.57c2.33,2.48,5.52,3.79,8.76,3.79,1.94,0,3.89-.47,5.69-1.44l21.83-11.76c10.05,6.09,20.73,10.79,31.9,14.02l8.34,25.61c1.61,4.94,6.21,8.28,11.41,8.28h33.9c5.27,0,9.92-3.43,11.47-8.47l7.85-25.48c11.17-3.25,21.85-7.96,31.9-14.07l22.27,11.51c1.75,.9,3.63,1.34,5.5,1.34,3.24,0,6.43-1.31,8.76-3.79l23.97-25.57c3.37-3.6,4.2-8.89,2.09-13.34l-11.5-24.28c5.96-11,10.52-22.71,13.6-34.97l23.77-8.81c4.71-1.74,7.83-6.23,7.83-11.25v-36.16c0-5.1-3.22-9.64-8.03-11.32l-23.62-8.28c-3.09-12.25-7.66-23.95-13.64-34.94l11.24-24.75c2.01-4.42,1.15-9.62-2.17-13.17l-23.97-25.57c-2.33-2.48-5.52-3.79-8.76-3.79-1.94,0-3.89,.47-5.69,1.44l-21.83,11.76c-10.05-6.09-20.73-10.79-31.9-14.02l-8.34-25.61c-1.61-4.94-6.21-8.28-11.41-8.28h0Zm-16.64,226.71c-26.35,0-47.79-23.23-47.79-51.78s21.44-51.78,47.79-51.78,47.79,23.23,47.79,51.78-21.44,51.78-47.79,51.78h0Z"/><path class="cls-1" d="M450.15,114.06l37.63,3.71,7.69,33.13c10.05,4.89,19.08,11.74,26.67,20.07l31.78-3.85,15.79,36.47-23.18,23.66c.25,2.9,.39,5.84,.39,8.81,0,8.94-1.18,17.59-3.38,25.77l19.01,27.28-21.84,32.77-30.87-9.49c-8.83,6.68-18.87,11.66-29.69,14.53l-12.74,31.13-37.63-3.71-7.69-33.13c-10.05-4.89-19.08-11.74-26.67-20.07l-31.78,3.85-15.79-36.47,23.18-23.66c-.25-2.9-.39-5.84-.39-8.81,0-8.94,1.18-17.59,3.38-25.77l-19.01-27.28,21.84-32.77,30.87,9.49c8.83-6.68,18.87-11.66,29.69-14.53l12.74-31.13m8.63,170.5c25.22,0,45.66-21.71,45.66-48.5s-20.44-48.5-45.66-48.5-45.66,21.71-45.66,48.5,20.44,48.5,45.66,48.5m-8.64-182.5c-4.83,0-9.24,2.91-11.1,7.45l-10.57,25.83c-8.05,2.69-15.71,6.43-22.87,11.17l-25.23-7.76c-1.16-.36-2.35-.53-3.53-.53-3.94,0-7.72,1.94-9.99,5.35l-21.84,32.77c-2.74,4.1-2.68,9.47,.14,13.51l15.92,22.86c-1.63,7.63-2.46,15.46-2.46,23.34,0,1.4,.03,2.81,.08,4.23l-19.44,19.84c-3.41,3.48-4.38,8.69-2.44,13.17l15.79,36.47c1.92,4.43,6.27,7.23,11.01,7.23,.48,0,.96-.03,1.45-.09l25.87-3.13c6.27,6.09,13.19,11.29,20.7,15.51l6.45,27.77c1.16,5.01,5.39,8.72,10.51,9.23l37.63,3.71c.4,.04,.79,.06,1.18,.06,4.83,0,9.24-2.91,11.1-7.45l10.57-25.83c8.05-2.69,15.71-6.43,22.87-11.17l25.23,7.76c1.16,.36,2.35,.53,3.53,.53,3.94,0,7.72-1.94,9.99-5.35l21.84-32.77c2.74-4.1,2.68-9.47-.14-13.51l-15.92-22.86c1.63-7.63,2.46-15.46,2.46-23.34,0-1.4-.03-2.81-.08-4.23l19.44-19.84c3.41-3.48,4.38-8.69,2.44-13.17l-15.79-36.47c-1.92-4.43-6.27-7.23-11.01-7.23-.48,0-.96,.03-1.45,.09l-25.87,3.13c-6.26-6.09-13.19-11.29-20.7-15.51l-6.45-27.77c-1.16-5.01-5.39-8.72-10.51-9.23l-37.63-3.71c-.4-.04-.79-.06-1.18-.06h0Zm8.64,170.5c-18.56,0-33.66-16.37-33.66-36.5s15.1-36.5,33.66-36.5,33.66,16.37,33.66,36.5-15.1,36.5-33.66,36.5h0Z"/></svg>