<?xml version="1.0" encoding="UTF-8"?><svg id="Icon_Set_Artwork" xmlns="http://www.w3.org/2000/svg" viewBox="0 0 600 600"><defs><style>.cls-1{fill:#fff;}.cls-2{fill:none;stroke:#fff;stroke-linejoin:round;stroke-width:12px;}</style></defs><path class="cls-1" d="M329.21,149.61h-20.36v-54.44c0-14.65-16.33-23.37-28.51-15.23l-137.57,91.99c-10.85,7.26-10.85,23.21,0,30.46l137.57,91.99c12.18,8.14,28.51-.59,28.51-15.23v-51.73h20.36c84.54,0,169.87,62.97,169.87,140.64,0,7.05-.7,13.98-2.05,20.76-4.18,21.07,12.07,40.67,33.54,40.67h0c16.7,0,31-12.06,33.72-28.54,1.77-10.72,2.68-21.7,2.68-32.88h0c0-120.65-106.45-218.46-237.77-218.46Z"/><path class="cls-2" d="M265.97,508.04h20.36v54.44c0,14.65,16.33,23.37,28.51,15.23l137.57-91.99c10.85-7.26,10.85-23.21,0-30.46l-137.57-91.99c-12.18-8.14-28.51,.59-28.51,15.23v51.73h-20.36c-84.54,0-169.87-62.97-169.87-140.64,0-7.05,.7-13.98,2.05-20.76,4.18-21.07-12.07-40.67-33.54-40.67h0c-16.7,0-31,12.06-33.72,28.54-1.77,10.72-2.68,21.7-2.68,32.88h0c0,120.65,106.45,218.46,237.77,218.46Z"/></svg>