<?xml version="1.0" encoding="UTF-8"?><svg id="Icon_Set_Artwork" xmlns="http://www.w3.org/2000/svg" viewBox="0 0 600 600"><defs><style>.cls-1{fill:#fff;}</style></defs><path class="cls-1" d="M74.76,412.07c2.55,9.1,10.49,16.03,20.33,16.92l1.25,.11-6.47-2.42c-6.9-2.58-12.26-7.95-15.1-14.61h0Z"/><path class="cls-1" d="M192.08,125.73l342.36,6.05c3.57,.52,6.22,3.55,6.22,7.21V445.11c0,4.02-3.25,7.29-7.25,7.29-.23,0-.46-.01-.69-.03l-13.22-1.19v-172.88c0-18.08-11.16-34.4-27.77-40.6L192.08,125.73m-94.94-17.74c-11.24,0-20.78,8.08-22.84,18.92,3.91-10.32,13.69-17.27,24.44-17.27,2.94,0,5.96,.52,8.95,1.64L486.13,252.68c10.42,3.89,17.37,14.14,17.37,25.62v187.5l27.78,2.5c.71,.06,1.42,.1,2.12,.1,12.7,0,23.25-10.32,23.25-23.29V138.99c0-12.05-9.19-22.11-21.2-23.19l-436.19-7.71c-.71-.06-1.42-.1-2.12-.1h0Z"/><path class="cls-1" d="M73.89,131.28c0-1.5,.15-2.96,.42-4.37-1.16,3.06-1.81,6.42-1.81,9.99V401.07c0,3.88,.81,7.61,2.26,11.01-.56-2-.87-4.1-.87-6.28V131.28Z"/><path class="cls-1" d="M427.5,460.67c6.87,27.01-1.17,52.36-17.95,56.63-16.78,4.27-35.96-14.17-42.82-41.18-2.02-7.93-2.74-15.71-2.34-22.86l-268.05-24.16,371.97,138.98c17.13,6.4,35.19-6.75,35.19-25.62v-76.66l-76.47-6.89c.16,.59,.33,1.17,.48,1.77Z"/><path class="cls-1" d="M486.13,252.68L107.69,111.28c-13.89-5.19-28.4,2.48-33.38,15.63-.27,1.41-.42,2.87-.42,4.37V405.8c0,2.17,.31,4.28,.87,6.28,2.85,6.66,8.21,12.03,15.1,14.61l6.47,2.42,268.05,24.16c.96-17.21,8.44-30.75,20.29-33.77,16.41-4.17,35.11,13.37,42.34,39.41l76.47,6.89v-187.5c0-11.48-6.95-21.72-17.37-25.62Z"/></svg>