<?xml version="1.0" encoding="UTF-8"?><svg id="Icon_Set_Artwork" xmlns="http://www.w3.org/2000/svg" viewBox="0 0 600 600"><defs><style>.cls-1{stroke-miterlimit:10;}.cls-1,.cls-2{fill:none;stroke:#fff;stroke-width:12px;}.cls-2{stroke-linejoin:round;}</style></defs><path class="cls-1" d="M534.76,98.66l-436.19-7.71c-12.14-1.09-22.78,7.3-24.96,18.82,4.99-13.15,19.49-20.82,33.38-15.63L485.43,235.54c10.42,3.89,17.37,14.14,17.37,25.62v187.5l27.78,2.5c13.63,1.23,25.38-9.51,25.38-23.19V121.86c0-12.05-9.19-22.11-21.2-23.19Z"/><path class="cls-2" d="M485.43,235.54L106.99,94.15c-13.89-5.19-28.39,2.48-33.38,15.63-.27,1.41-.42,2.87-.42,4.37V388.66c0,2.17,.31,4.28,.87,6.28,2.85,6.66,8.21,12.03,15.1,14.61l6.47,2.42,371.97,138.97c17.13,6.4,35.19-6.75,35.19-25.61V261.16c0-11.48-6.94-21.72-17.36-25.62Z"/><path class="cls-1" d="M432.51,487.8c-16.78,4.26-35.96-14.17-42.82-41.18-2.02-7.93-2.74-15.71-2.34-22.86,.95-17.21,8.43-30.76,20.29-33.77,16.41-4.17,35.11,13.37,42.34,39.41,.17,.59,.33,1.17,.48,1.77,6.87,27.01-1.17,52.36-17.95,56.63Z"/></svg>